<svg xmlns="http://www.w3.org/2000/svg" xmlns:xlink="http://www.w3.org/1999/xlink" version="1.1" width="595.28" height="841.89" viewBox="0 0 595.28 841.89"><defs><clipPath id="clip_1"><path transform="matrix(1,0,0,-1,0,841.89)" d="M0 841.89H595.28V0H0Z"/></clipPath></defs><g><g clip-path="url(#clip_1)"><path transform="matrix(1,0,0,-1,54.88,533.33)" d="M0 0C-.828 0-1.5 .673-1.5 1.5V4.5C-1.5 5.32-.828 5.99 0 5.99 .828 5.99 1.5 5.32 1.5 4.5V1.5C1.5 .673 .828 0 0 0M0-14.98C-.828-14.98-1.5-14.31-1.5-13.48V-10.49C-1.5-9.66-.828-8.99 0-8.99 .828-8.99 1.5-9.66 1.5-10.49V-13.48C1.5-14.31 .828-14.98 0-14.98M0-29.97C-.828-29.97-1.5-29.3-1.5-28.47V-25.47C-1.5-24.64-.828-23.97 0-23.97 .828-23.97 1.5-24.64 1.5-25.47V-28.47C1.5-29.3 .828-29.97 0-29.97M0-44.95C-.828-44.95-1.5-44.28-1.5-43.45V-40.45C-1.5-39.62-.828-38.95 0-38.95 .828-38.95 1.5-39.62 1.5-40.45V-43.45C1.5-44.28 .828-44.95 0-44.95M0-59.93C-.828-59.93-1.5-59.26-1.5-58.44V-55.44C-1.5-54.61-.828-53.94 0-53.94 .828-53.94 1.5-54.61 1.5-55.44V-58.44C1.5-59.26 .828-59.93 0-59.93M0-74.92C-.828-74.92-1.5-74.25-1.5-73.42V-70.42C-1.5-69.59-.828-68.92 0-68.92 .828-68.92 1.5-69.59 1.5-70.42V-73.42C1.5-74.25 .828-74.92 0-74.92M0-89.9C-.828-89.9-1.5-89.23-1.5-88.4V-85.4C-1.5-84.58-.828-83.91 0-83.91 .828-83.91 1.5-84.58 1.5-85.4V-88.4C1.5-89.23 .828-89.9 0-89.9M.433-104.87C-.339-104.87-.995-104.28-1.06-103.49-1.14-102.48-1.21-101.48-1.26-100.46-1.31-99.64-.676-98.93 .151-98.89 .995-98.82 1.69-99.47 1.73-100.3 1.78-101.29 1.85-102.27 1.93-103.25 2-104.08 1.38-104.8 .556-104.86 .515-104.87 .474-104.87 .433-104.87M2.4-119.71C1.69-119.71 1.06-119.21 .928-118.49 .741-117.5 .565-116.5 .401-115.5 .266-114.69 .816-113.92 1.63-113.78 2.47-113.64 3.22-114.2 3.36-115.01 3.52-116 3.69-116.97 3.87-117.93 4.02-118.75 3.49-119.53 2.68-119.69 2.58-119.7 2.49-119.71 2.4-119.71M5.94-134.26C5.29-134.26 4.7-133.84 4.5-133.19 4.21-132.23 3.93-131.26 3.66-130.28 3.44-129.49 3.91-128.66 4.71-128.44 5.5-128.22 6.33-128.69 6.55-129.49 6.81-130.44 7.09-131.38 7.37-132.33 7.61-133.12 7.16-133.96 6.37-134.19 6.22-134.24 6.08-134.26 5.94-134.26M11.01-148.33C10.42-148.33 9.87-147.99 9.63-147.41 9.24-146.49 8.86-145.56 8.49-144.62 8.18-143.85 8.56-142.98 9.33-142.68 10.09-142.36 10.97-142.75 11.27-143.52 11.63-144.43 12.01-145.35 12.39-146.25 12.71-147.01 12.36-147.89 11.59-148.21 11.4-148.29 11.21-148.33 11.01-148.33M17.55-161.78C17.02-161.78 16.52-161.51 16.24-161.01 15.75-160.13 15.28-159.25 14.8-158.35 14.42-157.62 14.7-156.72 15.43-156.33 16.17-155.95 17.07-156.22 17.46-156.96 17.92-157.83 18.39-158.7 18.86-159.56 19.27-160.28 19-161.2 18.28-161.6 18.05-161.72 17.8-161.78 17.55-161.78M25.5-174.47C25.03-174.47 24.56-174.25 24.27-173.83 23.69-173.01 23.12-172.18 22.56-171.34 22.1-170.66 22.28-169.72 22.97-169.26 23.65-168.8 24.58-168.98 25.05-169.67 25.6-170.49 26.16-171.31 26.72-172.11 27.2-172.79 27.04-173.72 26.36-174.2 26.1-174.38 25.8-174.47 25.5-174.47M34.74-186.24C34.33-186.24 33.91-186.07 33.62-185.73 32.95-184.97 32.29-184.21 31.65-183.44 31.11-182.8 31.2-181.86 31.83-181.32 32.46-180.79 33.41-180.87 33.94-181.51 34.58-182.26 35.22-183.01 35.87-183.76 36.41-184.38 36.35-185.33 35.73-185.87 35.45-186.12 35.09-186.24 34.74-186.24M45.18-196.97C44.82-196.97 44.46-196.84 44.17-196.58 43.42-195.89 42.69-195.2 41.97-194.5 41.37-193.93 41.35-192.97 41.92-192.38 42.5-191.78 43.45-191.77 44.04-192.34 44.76-193.03 45.47-193.7 46.2-194.38 46.81-194.94 46.85-195.89 46.28-196.49 45.99-196.81 45.59-196.97 45.18-196.97M56.7-206.54C56.39-206.54 56.08-206.45 55.81-206.25 55-205.64 54.19-205.03 53.4-204.41 52.74-203.9 52.63-202.96 53.14-202.31 53.65-201.65 54.59-201.54 55.24-202.05 56.02-202.66 56.8-203.25 57.6-203.84 58.26-204.34 58.4-205.28 57.91-205.94 57.61-206.34 57.16-206.54 56.7-206.54M69.17-214.84C68.92-214.84 68.65-214.78 68.41-214.64 67.54-214.12 66.68-213.6 65.82-213.06 65.12-212.63 64.9-211.71 65.33-211.01 65.77-210.3 66.69-210.08 67.4-210.52 68.24-211.04 69.09-211.55 69.94-212.06 70.65-212.48 70.89-213.4 70.47-214.11 70.19-214.58 69.69-214.84 69.17-214.84M82.47-221.76C82.26-221.76 82.05-221.72 81.85-221.63 80.92-221.21 80.01-220.78 79.1-220.34 78.35-219.99 78.04-219.09 78.4-218.34 78.76-217.6 79.65-217.28 80.39-217.65 81.29-218.07 82.18-218.49 83.09-218.9 83.84-219.25 84.17-220.14 83.83-220.89 83.58-221.44 83.03-221.76 82.47-221.76M96.43-227.23C96.27-227.23 96.11-227.21 95.95-227.15 94.99-226.83 94.03-226.5 93.08-226.17 92.3-225.89 91.89-225.04 92.17-224.26 92.45-223.47 93.3-223.07 94.08-223.34 95.02-223.67 95.95-224 96.9-224.31 97.68-224.57 98.11-225.42 97.85-226.2 97.64-226.83 97.06-227.23 96.43-227.23M110.87-231.16C110.77-231.16 110.66-231.15 110.55-231.13 109.56-230.91 108.58-230.69 107.6-230.46 106.79-230.26 106.3-229.46 106.49-228.65 106.68-227.85 107.48-227.33 108.3-227.54 109.25-227.77 110.22-227.99 111.19-228.2 111.99-228.37 112.51-229.17 112.33-229.98 112.18-230.68 111.56-231.16 110.87-231.16M125.66-233.53C125.61-233.53 125.55-233.52 125.5-233.52 124.49-233.41 123.49-233.3 122.49-233.17 121.67-233.06 121.09-232.31 121.19-231.49 121.3-230.67 122.07-230.08 122.87-230.19 123.85-230.32 124.83-230.43 125.81-230.54 126.64-230.63 127.23-231.36 127.15-232.19 127.06-232.96 126.41-233.53 125.66-233.53M140.6-234.31C139.59-234.31 138.59-234.3 137.58-234.28 136.75-234.26 136.09-233.58 136.11-232.75 136.13-231.93 136.8-231.28 137.61-231.28H137.64C138.63-231.3 139.61-231.31 140.6-231.31 141.43-231.31 142.1-231.99 142.1-232.81 142.1-233.64 141.43-234.31 140.6-234.31" fill="#dfbb7f"/><path transform="matrix(1,0,0,-1,222.13,821.34)" d="M0 0H-152.52V1.12C-152.52 27.36-173.86 48.7-200.09 48.7H-201.22V111.38H-198.97V50.93C-172.39 50.34-150.88 28.83-150.28 2.25H0Z" fill="#dfbb7f"/><path transform="matrix(1,0,0,-1,575.78,563.72)" d="M0 0C-.621 0-1.12 .505-1.12 1.13V495.86C-27.7 496.45-49.22 517.96-49.81 544.54H-503.93C-504.52 517.96-526.03 496.45-552.61 495.86V1.59C-552.61 .975-553.12 .471-553.74 .471-554.36 .471-554.86 .975-554.86 1.59V496.97C-554.86 497.59-554.36 498.09-553.74 498.09-527.5 498.09-506.17 519.44-506.17 545.67-506.17 546.29-505.66 546.79-505.04 546.79H-48.7C-48.08 546.79-47.57 546.29-47.57 545.67-47.57 519.44-26.23 498.09 0 498.09 .62 498.09 1.12 497.59 1.12 496.97V1.13C1.12 .505 .62 0 0 0" fill="#dfbb7f"/><path transform="matrix(1,0,0,-1,527.08,821.34)" d="M0 0H-152.03C-152.65 0-153.15 .505-153.15 1.12-153.15 1.75-152.65 2.25-152.03 2.25H-1.11C-.521 28.83 20.99 50.34 47.57 50.93V111.63C47.57 112.25 48.08 112.75 48.7 112.75 49.32 112.75 49.82 112.25 49.82 111.63V49.82C49.82 49.2 49.32 48.7 48.7 48.7 22.46 48.7 1.12 27.36 1.12 1.12 1.12 .505 .621 0 0 0" fill="#dfbb7f"/><path transform="matrix(1,0,0,-1,421.71,27.83)" d="M0 0C0-.72 .579-1.31 1.3-1.31 2.03-1.31 2.62-.72 2.62 0 2.62 .72 2.03 1.31 1.3 1.31 .579 1.31 0 .72 0 0" fill="#dfbb7f"/><path transform="matrix(1,0,0,-1,377.5,30.08)" d="M0 0C0-.72 .578-1.31 1.3-1.31 2.03-1.31 2.62-.72 2.62 0 2.62 .72 2.03 1.31 1.3 1.31 .578 1.31 0 .72 0 0" fill="#dfbb7f"/><path transform="matrix(1,0,0,-1,440.25,37.58)" d="M0 0C0-.72 .579-1.31 1.3-1.31 2.03-1.31 2.62-.72 2.62 0 2.62 .72 2.03 1.31 1.3 1.31 .579 1.31 0 .72 0 0" fill="#dfbb7f"/><path transform="matrix(1,0,0,-1,470.59,35.7)" d="M0 0C0-.719 .58-1.31 1.31-1.31 2.03-1.31 2.62-.719 2.62 0 2.62 .72 2.03 1.31 1.31 1.31 .58 1.31 0 .72 0 0" fill="#dfbb7f"/><path transform="matrix(1,0,0,-1,555.99,172.05)" d="M0 0C0-.72 .58-1.31 1.31-1.31 2.03-1.31 2.62-.72 2.62 0 2.62 .72 2.03 1.3 1.31 1.3 .58 1.3 0 .72 0 0" fill="#dfbb7f"/><path transform="matrix(1,0,0,-1,558.99,104.63)" d="M0 0C0-.72 .579-1.31 1.31-1.31 2.03-1.31 2.62-.72 2.62 0 2.62 .72 2.03 1.31 1.31 1.31 .579 1.31 0 .72 0 0" fill="#dfbb7f"/><path transform="matrix(1,0,0,-1,469.47,50.69)" d="M0 0C0-.72 .578-1.31 1.3-1.31 2.03-1.31 2.62-.72 2.62 0 2.62 .72 2.03 1.3 1.3 1.3 .578 1.3 0 .72 0 0" fill="#dfbb7f"/><path transform="matrix(1,0,0,-1,546.07,137.21)" d="M0 0C0-.72 .58-1.31 1.31-1.31 2.03-1.31 2.62-.72 2.62 0 2.62 .72 2.03 1.3 1.31 1.3 .58 1.3 0 .72 0 0" fill="#dfbb7f"/><path transform="matrix(1,0,0,-1,555.06,119.23)" d="M0 0C0-.721 .579-1.31 1.3-1.31 2.03-1.31 2.62-.721 2.62 0 2.62 .72 2.03 1.3 1.3 1.3 .579 1.3 0 .72 0 0" fill="#dfbb7f"/><path transform="matrix(1,0,0,-1,563.67,158.56)" d="M0 0C0-.719 .579-1.31 1.3-1.31 2.03-1.31 2.62-.719 2.62 0 2.62 .72 2.03 1.31 1.3 1.31 .579 1.31 0 .72 0 0" fill="#dfbb7f"/><path transform="matrix(1,0,0,-1,454.39,32.79)" d="M0 0C0-1.08 .873-1.96 1.96-1.96 3.04-1.96 3.92-1.08 3.92 0 3.92 1.08 3.04 1.96 1.96 1.96 .873 1.96 0 1.08 0 0" fill="#dfbb7f"/><path transform="matrix(1,0,0,-1,558.82,134.97)" d="M0 0C0-1.08 .872-1.96 1.96-1.96 3.04-1.96 3.92-1.08 3.92 0 3.92 1.08 3.04 1.96 1.96 1.96 .872 1.96 0 1.08 0 0" fill="#dfbb7f"/><path transform="matrix(1,0,0,-1,551.79,74.28)" d="M0 0C0-1.08 .866-1.96 1.96-1.96 3.04-1.96 3.92-1.08 3.92 0 3.92 1.08 3.04 1.96 1.96 1.96 .866 1.96 0 1.08 0 0" fill="#dfbb7f"/><path transform="matrix(1,0,0,-1,467.13,66.04)" d="M0 0C0-1.08 .866-1.96 1.96-1.96 3.04-1.96 3.92-1.08 3.92 0 3.92 1.08 3.04 1.96 1.96 1.96 .866 1.96 0 1.08 0 0" fill="#dfbb7f"/><path transform="matrix(1,0,0,-1,496.49,37.58)" d="M0 0C0-1.62 1.32-2.94 2.94-2.94 4.57-2.94 5.89-1.62 5.89 0 5.89 1.63 4.57 2.95 2.94 2.95 1.32 2.95 0 1.63 0 0" fill="#dfbb7f"/><path transform="matrix(1,0,0,-1,525.33,129.73)" d="M0 0C0-1.62 1.32-2.94 2.94-2.94 4.57-2.94 5.89-1.62 5.89 0 5.89 1.63 4.57 2.95 2.94 2.95 1.32 2.95 0 1.63 0 0" fill="#dfbb7f"/><path transform="matrix(1,0,0,-1,176.35,27.83)" d="M0 0C0-.72-.58-1.31-1.3-1.31-2.03-1.31-2.62-.72-2.62 0-2.62 .72-2.03 1.31-1.3 1.31-.58 1.31 0 .72 0 0" fill="#dfbb7f"/><path transform="matrix(1,0,0,-1,220.55,30.08)" d="M0 0C0-.72-.579-1.31-1.3-1.31-2.03-1.31-2.62-.72-2.62 0-2.62 .72-2.03 1.31-1.3 1.31-.579 1.31 0 .72 0 0" fill="#dfbb7f"/><path transform="matrix(1,0,0,-1,157.81,37.58)" d="M0 0C0-.72-.579-1.31-1.3-1.31-2.03-1.31-2.62-.72-2.62 0-2.62 .72-2.03 1.31-1.3 1.31-.579 1.31 0 .72 0 0" fill="#dfbb7f"/><path transform="matrix(1,0,0,-1,127.47,35.7)" d="M0 0C0-.719-.579-1.31-1.3-1.31-2.03-1.31-2.62-.719-2.62 0-2.62 .72-2.03 1.31-1.3 1.31-.579 1.31 0 .72 0 0" fill="#dfbb7f"/><path transform="matrix(1,0,0,-1,42.06,172.05)" d="M0 0C0-.72-.58-1.31-1.3-1.31-2.03-1.31-2.62-.72-2.62 0-2.62 .72-2.03 1.3-1.3 1.3-.58 1.3 0 .72 0 0" fill="#dfbb7f"/><path transform="matrix(1,0,0,-1,39.07,104.63)" d="M0 0C0-.72-.58-1.31-1.31-1.31-2.03-1.31-2.62-.72-2.62 0-2.62 .72-2.03 1.31-1.31 1.31-.58 1.31 0 .72 0 0" fill="#dfbb7f"/><path transform="matrix(1,0,0,-1,128.59,50.69)" d="M0 0C0-.72-.58-1.31-1.31-1.31-2.03-1.31-2.62-.72-2.62 0-2.62 .72-2.03 1.3-1.31 1.3-.58 1.3 0 .72 0 0" fill="#dfbb7f"/><path transform="matrix(1,0,0,-1,51.98,137.21)" d="M0 0C0-.72-.579-1.31-1.3-1.31-2.03-1.31-2.62-.72-2.62 0-2.62 .72-2.03 1.3-1.3 1.3-.579 1.3 0 .72 0 0" fill="#dfbb7f"/><path transform="matrix(1,0,0,-1,42.99,119.23)" d="M0 0C0-.721-.58-1.31-1.3-1.31-2.03-1.31-2.62-.721-2.62 0-2.62 .72-2.03 1.3-1.3 1.3-.58 1.3 0 .72 0 0" fill="#dfbb7f"/><path transform="matrix(1,0,0,-1,34.38,158.56)" d="M0 0C0-.719-.58-1.31-1.3-1.31-2.03-1.31-2.62-.719-2.62 0-2.62 .72-2.03 1.31-1.3 1.31-.58 1.31 0 .72 0 0" fill="#dfbb7f"/><path transform="matrix(1,0,0,-1,143.66,32.79)" d="M0 0C0-1.08-.866-1.96-1.96-1.96-3.04-1.96-3.92-1.08-3.92 0-3.92 1.08-3.04 1.96-1.96 1.96-.866 1.96 0 1.08 0 0" fill="#dfbb7f"/><path transform="matrix(1,0,0,-1,39.24,134.97)" d="M0 0C0-1.08-.866-1.96-1.96-1.96-3.04-1.96-3.92-1.08-3.92 0-3.92 1.08-3.04 1.96-1.96 1.96-.866 1.96 0 1.08 0 0" fill="#dfbb7f"/><path transform="matrix(1,0,0,-1,46.27,74.28)" d="M0 0C0-1.08-.872-1.96-1.96-1.96-3.04-1.96-3.92-1.08-3.92 0-3.92 1.08-3.04 1.96-1.96 1.96-.872 1.96 0 1.08 0 0" fill="#dfbb7f"/><path transform="matrix(1,0,0,-1,130.93,66.04)" d="M0 0C0-1.08-.872-1.96-1.96-1.96-3.04-1.96-3.92-1.08-3.92 0-3.92 1.08-3.04 1.96-1.96 1.96-.872 1.96 0 1.08 0 0" fill="#dfbb7f"/><path transform="matrix(1,0,0,-1,101.57,37.58)" d="M0 0C0-1.62-1.32-2.94-2.94-2.94-4.57-2.94-5.89-1.62-5.89 0-5.89 1.63-4.57 2.95-2.94 2.95-1.32 2.95 0 1.63 0 0" fill="#dfbb7f"/><path transform="matrix(1,0,0,-1,72.73,129.73)" d="M0 0C0-1.62-1.32-2.94-2.94-2.94-4.57-2.94-5.89-1.62-5.89 0-5.89 1.63-4.57 2.95-2.94 2.95-1.32 2.95 0 1.63 0 0" fill="#dfbb7f"/><path transform="matrix(1,0,0,-1,359.2,822.7)" d="M0 0H-118.62C-119.56 0-120.32 .766-120.32 1.7-120.32 2.64-119.56 3.41-118.62 3.41H0C.942 3.41 1.7 2.64 1.7 1.7 1.7 .766 .942 0 0 0" fill="#dfbb7f"/><path transform="matrix(1,0,0,-1,360.21,820.36)" d="M0 0H-2.27C-2.27 32.2-28.47 58.4-60.66 58.4-92.86 58.4-119.06 32.2-119.06 0H-121.33C-121.33 33.45-94.12 60.66-60.66 60.66-27.21 60.66 0 33.45 0 0" fill="#dfbb7f"/><path transform="matrix(1,0,0,-1,257.04,821.68)" d="M0 0C0 23.47 19.02 42.51 42.51 42.51 65.98 42.51 85.01 23.47 85.01 0" fill="#dfbb7f"/><path transform="matrix(1,0,0,-1,343.18,821.68)" d="M0 0H-2.27C-2.27 22.81-20.82 41.37-43.63 41.37-66.44 41.37-85 22.81-85 0H-87.27C-87.27 24.06-67.7 43.64-43.63 43.64-19.57 43.64 0 24.06 0 0" fill="#dfbb7f"/><path transform="matrix(1,0,0,-1,227.93,41.18)" d="M0 0-14.77 3.73-12.27 0-14.77-3.73Z" fill="#dfbb7f"/><path transform="matrix(1,0,0,-1,214.2,38.17)" d="M0 0 11.86-3 0-6 1.84-3.26C1.94-3.1 1.94-2.9 1.84-2.75ZM14.19-3C14.19-2.79 14.04-2.61 13.84-2.55L-.931 1.18C-1.11 1.22-1.3 1.15-1.42 .995-1.52 .837-1.53 .638-1.42 .477L.901-3-1.42-6.48C-1.53-6.64-1.53-6.84-1.42-7-1.3-7.15-1.11-7.22-.931-7.18L13.84-3.45C14.04-3.39 14.19-3.21 14.19-3" fill="#dfbb7f"/><path transform="matrix(1,0,0,-1,368.28,41.18)" d="M0 0 14.77 3.73 12.27 0 14.77-3.73Z" fill="#dfbb7f"/><path transform="matrix(1,0,0,-1,382.01,38.17)" d="M0 0-11.86-3 0-6-1.84-3.26C-1.94-3.1-1.94-2.9-1.84-2.75ZM-14.19-3C-14.19-2.79-14.04-2.61-13.84-2.55L.931 1.18C1.11 1.22 1.3 1.15 1.42 .995 1.52 .837 1.53 .638 1.42 .477L-.901-3 1.42-6.48C1.53-6.64 1.53-6.84 1.42-7 1.3-7.15 1.11-7.22 .931-7.18L-13.84-3.45C-14.04-3.39-14.19-3.21-14.19-3" fill="#dfbb7f"/><path transform="matrix(1,0,0,-1,42.81,473.73)" d="M0 0C-.621 0-1.12 .504-1.12 1.12V259.56C-1.12 307.52 38.94 348.03 86.35 348.03 86.97 348.03 87.48 347.53 87.48 346.91 87.48 346.29 86.97 345.79 86.35 345.79 40.15 345.79 1.12 306.3 1.12 259.56V1.12C1.12 .504 .621 0 0 0" fill="#dfbb7f"/><path transform="matrix(1,0,0,-1,129.17,127.94)" d="M0 0C-.621 0-1.12 .502-1.12 1.12-1.12 48.97 37.8 87.89 85.65 87.89 86.27 87.89 86.78 87.39 86.78 86.77 86.78 86.15 86.27 85.64 85.65 85.64 39.04 85.64 1.12 47.73 1.12 1.12 1.12 .502 .621 0 0 0" fill="#dfbb7f"/><path transform="matrix(1,0,0,-1,553.59,474.1)" d="M0 0C-.62 0-1.12 .503-1.12 1.12V261.64C-1.12 308.25-39.04 346.16-85.65 346.16-86.27 346.16-86.77 346.66-86.77 347.29-86.77 347.9-86.27 348.41-85.65 348.41-37.8 348.41 1.12 309.48 1.12 261.64V1.12C1.12 .503 .621 0 0 0" fill="#dfbb7f"/><path transform="matrix(1,0,0,-1,467.95,127.94)" d="M0 0C-.62 0-1.12 .502-1.12 1.12-1.12 47.73-39.04 85.64-85.65 85.64-86.27 85.64-86.77 86.15-86.77 86.77-86.77 87.39-86.27 87.89-85.65 87.89-37.8 87.89 1.12 48.97 1.12 1.12 1.12 .502 .62 0 0 0" fill="#dfbb7f"/><path transform="matrix(1,0,0,-1,298.65,116.51)" d="M0 0C-.413 0-.749 .336-.749 .75V44.58C-.749 44.99-.413 45.33 0 45.33 .414 45.33 .75 44.99 .75 44.58V.75C.75 .336 .414 0 0 0" fill="#dfbb7f"/><path transform="matrix(1,0,0,-1,367.91,87.82)" d="M0 0C-.194 0-.384 .073-.529 .22L-31.52 31.21C-31.81 31.5-31.81 31.98-31.52 32.27-31.22 32.56-30.75 32.56-30.46 32.27L.529 1.28C.822 .986 .822 .512 .529 .22 .383 .073 .193 0 0 0" fill="#dfbb7f"/><path transform="matrix(1,0,0,-1,229.38,87.82)" d="M0 0C-.193 0-.383 .073-.53 .22-.822 .512-.822 .986-.53 1.28L30.46 32.27C30.75 32.56 31.23 32.56 31.52 32.27 31.81 31.98 31.81 31.5 31.52 31.21L.53 .22C.384 .073 .193 0 0 0" fill="#dfbb7f"/><path transform="matrix(1,0,0,-1,317.3,100.24)" d="M0 0C-.342 0-.649 .236-.732 .583L-7.56 30.48C-7.65 30.89-7.39 31.29-6.99 31.38-6.59 31.47-6.19 31.22-6.09 30.82L.731 .916C.821 .512 .57 .111 .167 .019 .111 .006 .056 0 0 0" fill="#dfbb7f"/><path transform="matrix(1,0,0,-1,369.6,63.12)" d="M0 0C-.138 0-.275 .036-.398 .114L-24.45 15.22C-24.8 15.44-24.91 15.91-24.69 16.26-24.47 16.61-24 16.71-23.66 16.49L.397 1.38C.749 1.16 .854 .701 .635 .351 .491 .124 .249 0 0 0" fill="#dfbb7f"/><path transform="matrix(1,0,0,-1,254.08,89.5)" d="M0 0C-.138 0-.274 .036-.397 .114-.749 .335-.854 .797-.635 1.15L15.58 26.95C15.8 27.31 16.27 27.41 16.61 27.19 16.96 26.97 17.07 26.51 16.85 26.16L.635 .351C.492 .124 .249 0 0 0" fill="#dfbb7f"/><path transform="matrix(1,0,0,-1,339,91.95)" d="M0 0C-.262 0-.521 .141-.655 .388L-16.19 28.65C-16.39 29.01-16.26 29.47-15.89 29.67-15.53 29.86-15.08 29.73-14.88 29.37L.655 1.11C.855 .748 .723 .292 .359 .092 .245 .029 .123 0 0 0" fill="#dfbb7f"/><path transform="matrix(1,0,0,-1,225.25,58.9)" d="M0 0C-.27 0-.53 .146-.665 .4-.854 .767-.714 1.22-.349 1.41L24.88 14.66C25.24 14.85 25.7 14.71 25.89 14.34 26.08 13.98 25.94 13.52 25.57 13.33L.348 .086C.237 .027 .117 0 0 0" fill="#dfbb7f"/><path transform="matrix(1,0,0,-1,362.83,37.21)" d="M0 0C-.069 0-.141 .009-.208 .029L-10.62 3.06C-11.02 3.17-11.25 3.59-11.13 3.98-11.02 4.38-10.58 4.61-10.2 4.5L.208 1.47C.606 1.35 .834 .938 .72 .54 .624 .212 .324 0 0 0" fill="#dfbb7f"/><path transform="matrix(1,0,0,-1,232.66,37.21)" d="M0 0C-.325 0-.623 .212-.72 .54-.834 .938-.605 1.35-.208 1.47L10.21 4.5C10.59 4.62 11.02 4.38 11.13 3.98 11.25 3.59 11.02 3.17 10.62 3.06L.208 .029C.141 .009 .07 0 0 0" fill="#dfbb7f"/><path transform="matrix(1,0,0,-1,275.28,98.99)" d="M0 0C-.07 0-.14 .009-.208 .029-.605 .145-.833 .561-.72 .958L7.6 29.61C7.72 30.01 8.16 30.23 8.53 30.12 8.93 30 9.16 29.59 9.04 29.19L.72 .54C.624 .212 .326 0 0 0" fill="#dfbb7f"/><path transform="matrix(1,0,0,-1,298.65,63.26)" d="M0 0C-25.06 0-45.45 20.39-45.45 45.45-45.45 46.07-44.95 46.57-44.33 46.57-43.71 46.57-43.2 46.07-43.2 45.45-43.2 21.63-23.82 2.25 0 2.25 23.82 2.25 43.2 21.63 43.2 45.45 43.2 46.07 43.7 46.57 44.32 46.57 44.95 46.57 45.45 46.07 45.45 45.45 45.45 20.39 25.06 0 0 0" fill="#dfbb7f"/><path transform="matrix(1,0,0,-1,277.82,18.56)" d="M0 0C.267-11.37 9.51-20.44 20.82-20.44 32.18-20.44 41.45-11.31 41.66 0ZM20.82-21.94C8.51-21.94-1.51-11.92-1.51 .396-1.51 .414-1.5 .61-1.5 .627-1.47 1.02-1.14 1.5-.743 1.5H42.39C42.79 1.5 43.12 1.19 43.14 .785 43.15 .584 43.16 .491 43.16 .396 43.16-11.92 33.14-21.94 20.82-21.94" fill="#dfbb7f"/><path transform="matrix(1,0,0,-1,264.71,24.46)" d="M0 0C0 .451-.363 .814-.814 .814-1.26 .814-1.63 .451-1.63 0-1.63-.448-1.26-.811-.814-.811-.363-.811 0-.448 0 0" fill="#dfbb7f"/><path transform="matrix(1,0,0,-1,271.58,39.01)" d="M0 0C0 .687-.562 1.25-1.25 1.25-1.94 1.25-2.5 .687-2.5 0-2.5-.691-1.94-1.25-1.25-1.25-.562-1.25 0-.691 0 0" fill="#dfbb7f"/><path transform="matrix(1,0,0,-1,273.45,29.71)" d="M0 0C0 .518-.416 .937-.937 .937-1.45 .937-1.87 .518-1.87 0-1.87-.518-1.45-.937-.937-.937-.416-.937 0-.518 0 0" fill="#dfbb7f"/><path transform="matrix(1,0,0,-1,284.31,47.19)" d="M0 0C0 .244-.193 .439-.434 .439-.679 .439-.872 .244-.872 0-.872-.24-.679-.436-.434-.436-.193-.436 0-.24 0 0" fill="#dfbb7f"/><path transform="matrix(1,0,0,-1,282.44,41.69)" d="M0 0C0 .311-.252 .562-.562 .562-.873 .562-1.12 .311-1.12 0-1.12-.31-.873-.562-.562-.562-.252-.562 0-.31 0 0" fill="#dfbb7f"/><path transform="matrix(1,0,0,-1,278.32,49.87)" d="M0 0C0 .482-.392 .875-.872 .875-1.36 .875-1.75 .482-1.75 0-1.75-.484-1.36-.875-.872-.875-.392-.875 0-.484 0 0" fill="#dfbb7f"/><path transform="matrix(1,0,0,-1,291.55,57.36)" d="M0 0C0 .688-.556 1.25-1.25 1.25-1.94 1.25-2.49 .688-2.49 0-2.49-.69-1.94-1.25-1.25-1.25-.556-1.25 0-.69 0 0" fill="#dfbb7f"/><path transform="matrix(1,0,0,-1,291.43,43.38)" d="M0 0C0 .55-.451 .998-1 .998-1.55 .998-2 .55-2 0-2-.55-1.55-.998-1-.998-.451-.998 0-.55 0 0" fill="#dfbb7f"/><path transform="matrix(1,0,0,-1,293.81,50.81)" d="M0 0C0 .24-.199 .437-.439 .437-.679 .437-.878 .24-.878 0-.878-.243-.679-.439-.439-.439-.199-.439 0-.243 0 0" fill="#dfbb7f"/><path transform="matrix(1,0,0,-1,305.17,42.88)" d="M0 0C0 .483-.394 .875-.873 .875-1.36 .875-1.75 .483-1.75 0-1.75-.48-1.36-.872-.873-.872-.394-.872 0-.48 0 0" fill="#dfbb7f"/><path transform="matrix(1,0,0,-1,299.42,45.5)" d="M0 0C0 .278-.222 .5-.498 .5-.773 .5-.994 .278-.994 0-.994-.275-.773-.498-.498-.498-.222-.498 0-.275 0 0" fill="#dfbb7f"/><path transform="matrix(1,0,0,-1,305.79,54.49)" d="M0 0C0 .758-.613 1.37-1.37 1.37-2.13 1.37-2.74 .758-2.74 0-2.74-.758-2.13-1.37-1.37-1.37-.613-1.37 0-.758 0 0" fill="#dfbb7f"/><path transform="matrix(1,0,0,-1,263.84,32.77)" d="M0 0C0 .345-.275 .623-.621 .623-.966 .623-1.25 .345-1.25 0-1.25-.346-.966-.624-.621-.624-.275-.624 0-.346 0 0" fill="#dfbb7f"/><path transform="matrix(1,0,0,-1,315.03,53.74)" d="M0 0C0 .278-.223 .5-.497 .5-.777 .5-1 .278-1 0-1-.275-.777-.498-.497-.498-.223-.498 0-.275 0 0" fill="#dfbb7f"/><path transform="matrix(1,0,0,-1,313.66,48.5)" d="M0 0C0 .553-.451 1-1 1-1.55 1-2 .553-2 0-2-.55-1.55-.998-1-.998-.451-.998 0-.55 0 0" fill="#dfbb7f"/><path transform="matrix(1,0,0,-1,318.28,37.51)" d="M0 0C0 .62-.503 1.12-1.12 1.12-1.75 1.12-2.25 .62-2.25 0-2.25-.621-1.75-1.12-1.12-1.12-.503-1.12 0-.621 0 0" fill="#dfbb7f"/><path transform="matrix(1,0,0,-1,324.52,42.88)" d="M0 0C0 .345-.275 .624-.621 .624-.966 .624-1.25 .345-1.25 0-1.25-.345-.966-.624-.621-.624-.275-.624 0-.345 0 0" fill="#dfbb7f"/><path transform="matrix(1,0,0,-1,321.9,49)" d="M0 0C0 .138-.111 .249-.245 .249-.386 .249-.497 .138-.497 0-.497-.138-.386-.249-.245-.249-.111-.249 0-.138 0 0" fill="#dfbb7f"/><path transform="matrix(1,0,0,-1,331.58,40.76)" d="M0 0C0 .343-.28 .624-.626 .624-.972 .624-1.25 .343-1.25 0-1.25-.345-.972-.626-.626-.626-.28-.626 0-.345 0 0" fill="#dfbb7f"/><path transform="matrix(1,0,0,-1,327.64,37.29)" d="M0 0C0 .223-.182 .404-.404 .404-.626 .404-.809 .223-.809 0-.809-.225-.626-.407-.404-.407-.182-.407 0-.225 0 0" fill="#dfbb7f"/><path transform="matrix(1,0,0,-1,324.96,28.9)" d="M0 0C0 .656-.534 1.19-1.19 1.19-1.85 1.19-2.38 .656-2.38 0-2.38-.652-1.85-1.19-1.19-1.19-.534-1.19 0-.652 0 0" fill="#dfbb7f"/><path transform="matrix(1,0,0,-1,332.51,30.46)" d="M0 0C0 .275-.222 .497-.497 .497-.772 .497-.994 .275-.994 0-.994-.278-.772-.5-.497-.5-.222-.5 0-.278 0 0" fill="#dfbb7f"/><path transform="matrix(1,0,0,-1,334.94,34.67)" d="M0 0C0 .19-.153 .342-.34 .342-.532 .342-.686 .19-.686 0-.686-.19-.532-.343-.34-.343-.153-.343 0-.19 0 0" fill="#dfbb7f"/><path transform="matrix(1,0,0,-1,324.09,35.11)" d="M0 0C0 .225-.183 .407-.41 .407-.633 .407-.814 .225-.814 0-.814-.226-.633-.407-.41-.407-.183-.407 0-.226 0 0" fill="#dfbb7f"/><path transform="matrix(1,0,0,-1,332.82,22.47)" d="M0 0C0 .519-.421 .937-.936 .937-1.46 .937-1.87 .519-1.87 0-1.87-.518-1.46-.936-.936-.936-.421-.936 0-.518 0 0" fill="#dfbb7f"/><path transform="matrix(1,0,0,-1,339.44,27.15)" d="M0 0C0 .345-.275 .624-.621 .624-.966 .624-1.25 .345-1.25 0-1.25-.345-.966-.623-.621-.623-.275-.623 0-.345 0 0" fill="#dfbb7f"/><path transform="matrix(1,0,0,-1,330.48,27.94)" d="M0 0C0 .337-.275 .609-.609 .609-.948 .609-1.22 .337-1.22 0-1.22-.336-.948-.609-.609-.609-.275-.609 0-.336 0 0" fill="#dfbb7f"/><path transform="matrix(1,0,0,-1,327.58,20.73)" d="M0 0C0 .389-.314 .702-.702 .702-1.09 .702-1.4 .389-1.4 0-1.4-.389-1.09-.703-.702-.703-.314-.703 0-.389 0 0" fill="#dfbb7f"/><path transform="matrix(1,0,0,-1,339,21.01)" d="M0 0C0 .181-.146 .327-.328 .327-.509 .327-.655 .181-.655 0-.655-.182-.509-.328-.328-.328-.146-.328 0-.182 0 0" fill="#dfbb7f"/><path transform="matrix(1,0,0,-1,309.22,46.58)" d="M0 0C0 .594-.485 1.08-1.08 1.08-1.68 1.08-2.15 .594-2.15 0-2.15-.594-1.68-1.08-1.08-1.08-.485-1.08 0-.594 0 0" fill="#dfbb7f"/><path transform="matrix(1,0,0,-1,284.78,54.91)" d="M0 0C0 .336-.275 .608-.609 .608-.948 .608-1.22 .336-1.22 0-1.22-.337-.948-.609-.609-.609-.275-.609 0-.337 0 0" fill="#dfbb7f"/><path transform="matrix(1,0,0,-1,277.29,35.44)" d="M0 0C0 .39-.316 .703-.703 .703-1.09 .703-1.41 .39-1.41 0-1.41-.389-1.09-.701-.703-.701-.316-.701 0-.389 0 0" fill="#dfbb7f"/><path transform="matrix(1,0,0,-1,272.05,21.95)" d="M0 0C0 .594-.486 1.08-1.08 1.08-1.67 1.08-2.15 .594-2.15 0-2.15-.594-1.67-1.08-1.08-1.08-.486-1.08 0-.594 0 0" fill="#dfbb7f"/><path transform="matrix(1,0,0,-1,269.14,45.74)" d="M0 0C0 .128-.105 .234-.233 .234-.363 .234-.468 .128-.468 0-.468-.129-.363-.234-.233-.234-.105-.234 0-.129 0 0" fill="#dfbb7f"/><path transform="matrix(1,0,0,-1,263.81,37.17)" d="M0 0C0 .311-.251 .562-.562 .562-.872 .562-1.12 .311-1.12 0-1.12-.31-.872-.562-.562-.562-.251-.562 0-.31 0 0" fill="#dfbb7f"/><path transform="matrix(1,0,0,-1,21.84,761.11)" d="M0 0C-.412 0-.749 .336-.749 .749V48.97C-.749 49.38-.412 49.72 0 49.72 .413 49.72 .75 49.38 .75 48.97V.749C.75 .336 .413 0 0 0" fill="#dfbb7f"/><path transform="matrix(1,0,0,-1,63.95,778.56)" d="M0 0C-.193 0-.383 .073-.53 .221-.822 .513-.822 .988-.53 1.28L33.57 35.38C33.86 35.67 34.34 35.67 34.63 35.38 34.92 35.09 34.92 34.61 34.63 34.32L.529 .221C.384 .073 .193 0 0 0" fill="#dfbb7f"/><path transform="matrix(1,0,0,-1,53.04,771.01)" d="M0 0C-.137 0-.275 .039-.398 .115-.749 .335-.855 .798-.635 1.15L17.2 29.55C17.42 29.9 17.89 30 18.23 29.78 18.58 29.56 18.69 29.1 18.47 28.75L.635 .353C.492 .124 .249 0 0 0" fill="#dfbb7f"/><path transform="matrix(1,0,0,-1,74.85,790.85)" d="M0 0C-.27 0-.529 .147-.664 .4-.855 .768-.714 1.22-.349 1.42L27.41 15.99C27.77 16.18 28.23 16.04 28.42 15.67 28.61 15.31 28.47 14.85 28.1 14.66L.349 .085C.237 .028 .117 0 0 0" fill="#dfbb7f"/><path transform="matrix(1,0,0,-1,82.99,803.47)" d="M0 0C-.325 0-.624 .215-.72 .542-.834 .937-.606 1.35-.208 1.47L11.25 4.8C11.63 4.91 12.06 4.68 12.18 4.29 12.29 3.89 12.07 3.47 11.67 3.36L.208 .031C.141 .01 .07 0 0 0" fill="#dfbb7f"/><path transform="matrix(1,0,0,-1,38.39,763.69)" d="M0 0C-.071 0-.141 .008-.208 .029-.606 .146-.835 .562-.72 .957L8.44 32.48C8.56 32.88 8.98 33.11 9.37 33 9.77 32.88 9.99 32.46 9.88 32.07L.719 .542C.623 .215 .324 0 0 0" fill="#dfbb7f"/><path transform="matrix(1,0,0,-1,533.35,778.56)" d="M0 0C-.194 0-.385 .073-.53 .221L-34.62 34.32C-34.92 34.61-34.92 35.09-34.62 35.38-34.33 35.67-33.86 35.67-33.56 35.38L.529 1.28C.821 .988 .821 .513 .529 .221 .382 .073 .192 0 0 0" fill="#dfbb7f"/><path transform="matrix(1,0,0,-1,544.26,771.01)" d="M0 0C-.248 0-.491 .124-.634 .353L-18.47 28.75C-18.69 29.1-18.58 29.56-18.23 29.78-17.89 30-17.42 29.9-17.2 29.55L.635 1.15C.856 .798 .751 .335 .398 .115 .276 .039 .138 0 0 0" fill="#dfbb7f"/><path transform="matrix(1,0,0,-1,522.46,790.85)" d="M0 0C-.117 0-.238 .028-.35 .085L-28.11 14.66C-28.48 14.85-28.61 15.31-28.43 15.67-28.23 16.04-27.77 16.18-27.41 15.99L.347 1.42C.713 1.22 .854 .768 .663 .4 .529 .147 .27 0 0 0" fill="#dfbb7f"/><path transform="matrix(1,0,0,-1,514.31,803.47)" d="M0 0C-.069 0-.14 .01-.208 .031L-11.66 3.36C-12.06 3.47-12.29 3.89-12.17 4.29-12.06 4.68-11.63 4.91-11.24 4.8L.208 1.47C.606 1.35 .834 .937 .721 .542 .624 .215 .324 0 0 0" fill="#dfbb7f"/><path transform="matrix(1,0,0,-1,558.91,763.69)" d="M0 0C-.325 0-.624 .215-.72 .542L-9.88 32.07C-9.99 32.46-9.77 32.88-9.37 33-8.99 33.12-8.56 32.88-8.44 32.48L.721 .957C.834 .562 .605 .146 .208 .029 .14 .008 .069 0 0 0" fill="#dfbb7f"/><path transform="matrix(1,0,0,-1,84.77,67.38)" d="M0 0C-.413 0-.749 .336-.749 .75V17.2C-.749 17.61-.413 17.95 0 17.95 .413 17.95 .749 17.61 .749 17.2V.75C.749 .336 .413 0 0 0" fill="#dfbb7f"/><path transform="matrix(1,0,0,-1,84.77,124.45)" d="M0 0C-.413 0-.749 .335-.749 .75V17.2C-.749 17.61-.413 17.95 0 17.95 .413 17.95 .749 17.61 .749 17.2V.75C.749 .335 .413 0 0 0" fill="#dfbb7f"/><path transform="matrix(1,0,0,-1,121.52,87.69)" d="M0 0H-16.44C-16.85 0-17.19 .335-17.19 .75-17.19 1.16-16.85 1.5-16.44 1.5H0C.413 1.5 .749 1.16 .749 .75 .749 .335 .413 0 0 0" fill="#dfbb7f"/><path transform="matrix(1,0,0,-1,64.46,87.69)" d="M0 0H-16.45C-16.86 0-17.2 .335-17.2 .75-17.2 1.16-16.86 1.5-16.45 1.5H0C.413 1.5 .75 1.16 .75 .75 .75 .335 .413 0 0 0" fill="#dfbb7f"/><path transform="matrix(1,0,0,-1,99.13,73.33)" d="M0 0C-.192 0-.383 .073-.529 .219-.823 .512-.823 .986-.529 1.28L11.09 12.91C11.39 13.2 11.86 13.2 12.15 12.91 12.45 12.62 12.45 12.14 12.15 11.85L.53 .219C.383 .073 .193 0 0 0" fill="#dfbb7f"/><path transform="matrix(1,0,0,-1,58.77,113.68)" d="M0 0C-.193 0-.383 .072-.53 .219-.822 .512-.822 .986-.53 1.28L11.1 12.91C11.39 13.2 11.87 13.2 12.16 12.91 12.45 12.62 12.45 12.14 12.16 11.85L.53 .219C.384 .072 .194 0 0 0" fill="#dfbb7f"/><path transform="matrix(1,0,0,-1,110.75,113.68)" d="M0 0C-.193 0-.383 .072-.53 .219L-12.15 11.85C-12.45 12.14-12.45 12.62-12.15 12.91-11.86 13.2-11.38 13.2-11.09 12.91L.53 1.28C.822 .986 .822 .512 .53 .219 .383 .072 .191 0 0 0" fill="#dfbb7f"/><path transform="matrix(1,0,0,-1,70.4,73.33)" d="M0 0C-.193 0-.383 .073-.529 .219L-12.16 11.85C-12.45 12.14-12.45 12.62-12.16 12.91-11.87 13.2-11.39 13.2-11.1 12.91L.53 1.28C.822 .986 .822 .512 .53 .219 .384 .073 .194 0 0 0" fill="#dfbb7f"/><path transform="matrix(1,0,0,-1,89.2,68.26)" d="M0 0C-.055 0-.111 .005-.167 .019-.571 .111-.822 .512-.731 .916L1.83 12.13C1.93 12.54 2.33 12.78 2.73 12.7 3.13 12.6 3.39 12.2 3.29 11.8L.732 .582C.65 .235 .342 0 0 0" fill="#dfbb7f"/><path transform="matrix(1,0,0,-1,77.77,118.34)" d="M0 0C-.056 0-.111 .005-.167 .019-.571 .111-.822 .512-.732 .916L1.91 12.52C2.01 12.92 2.42 13.17 2.81 13.08 3.22 12.99 3.47 12.59 3.38 12.19L.731 .583C.653 .235 .342 0 0 0" fill="#dfbb7f"/><path transform="matrix(1,0,0,-1,115.41,94.69)" d="M0 0C-.056 0-.111 .006-.166 .02L-10.73 2.42C-11.13 2.52-11.39 2.92-11.29 3.32-11.2 3.73-10.79 3.98-10.4 3.88L.167 1.48C.571 1.39 .822 .986 .732 .583 .653 .236 .342 0 0 0" fill="#dfbb7f"/><path transform="matrix(1,0,0,-1,64.59,83.14)" d="M0 0C-.056 0-.114 .006-.17 .019L-8.22 1.9C-8.62 2-8.87 2.4-8.78 2.8-8.69 3.21-8.27 3.45-7.88 3.36L.169 1.48C.573 1.39 .822 .982 .729 .578 .65 .232 .339 0 0 0" fill="#dfbb7f"/><path transform="matrix(1,0,0,-1,102.36,76.64)" d="M0 0C-.249 0-.492 .125-.635 .352-.854 .701-.75 1.16-.398 1.39L8.63 7.05C8.98 7.27 9.44 7.17 9.66 6.82 9.88 6.47 9.77 6 9.42 5.78L.398 .114C.275 .037 .137 0 0 0" fill="#dfbb7f"/><path transform="matrix(1,0,0,-1,58.15,104.41)" d="M0 0C-.25 0-.492 .124-.636 .351-.854 .701-.75 1.16-.398 1.38L8.26 6.82C8.61 7.04 9.07 6.94 9.3 6.59 9.52 6.24 9.41 5.78 9.06 5.55L.398 .114C.274 .037 .137 0 0 0" fill="#dfbb7f"/><path transform="matrix(1,0,0,-1,101.48,114.31)" d="M0 0C-.25 0-.492 .125-.635 .351L-6.85 10.25C-7.07 10.6-6.96 11.06-6.61 11.28-6.27 11.49-5.8 11.4-5.58 11.04L.635 1.15C.854 .798 .749 .334 .397 .114 .274 .037 .137 0 0 0" fill="#dfbb7f"/><path transform="matrix(1,0,0,-1,74.12,70.76)" d="M0 0C-.249 0-.492 .125-.635 .351L-6.72 10.04C-6.94 10.39-6.83 10.85-6.48 11.07-6.13 11.29-5.67 11.18-5.45 10.83L.635 1.15C.854 .797 .75 .335 .398 .114 .275 .036 .138 0 0 0" fill="#dfbb7f"/><path transform="matrix(1,0,0,-1,94.66,70.01)" d="M0 0C-.125 0-.254 .031-.368 .099-.729 .302-.854 .76-.652 1.12L5.03 11.12C5.24 11.49 5.7 11.62 6.05 11.41 6.41 11.2 6.54 10.74 6.34 10.38L.653 .379C.513 .136 .261 0 0 0" fill="#dfbb7f"/><path transform="matrix(1,0,0,-1,69.28,114.67)" d="M0 0C-.125 0-.254 .03-.369 .098-.729 .301-.854 .759-.652 1.12L4.77 10.67C4.98 11.03 5.44 11.16 5.79 10.95 6.15 10.75 6.28 10.29 6.08 9.93L.653 .378C.512 .136 .261 0 0 0" fill="#dfbb7f"/><path transform="matrix(1,0,0,-1,112.15,102.87)" d="M0 0C-.125 0-.251 .03-.369 .097L-10.16 5.66C-10.52 5.86-10.65 6.32-10.45 6.68-10.24 7.04-9.79 7.17-9.42 6.96L.368 1.4C.729 1.2 .855 .738 .653 .378 .512 .136 .26 0 0 0" fill="#dfbb7f"/><path transform="matrix(1,0,0,-1,66.81,77.17)" d="M0 0C-.128 0-.254 .033-.374 .1L-7.54 4.22C-7.89 4.42-8.02 4.88-7.81 5.24-7.61 5.6-7.15 5.72-6.79 5.52L.375 1.4C.732 1.19 .855 .735 .65 .376 .513 .135 .258 0 0 0" fill="#dfbb7f"/><path transform="matrix(1,0,0,-1,104.85,81.83)" d="M0 0C-.328 0-.632 .218-.723 .55-.832 .95-.597 1.36-.199 1.47L10.08 4.3C10.49 4.41 10.89 4.18 11 3.78 11.11 3.38 10.88 2.97 10.48 2.86L.199 .026C.131 .008 .064 0 0 0" fill="#dfbb7f"/><path transform="matrix(1,0,0,-1,54.51,95.69)" d="M0 0C-.328 0-.629 .218-.723 .55-.831 .949-.598 1.36-.199 1.47L9.74 4.21C10.15 4.33 10.56 4.09 10.67 3.69 10.78 3.29 10.54 2.88 10.14 2.77L.198 .026C.131 .009 .064 0 0 0" fill="#dfbb7f"/><path transform="matrix(1,0,0,-1,93.16,117.65)" d="M0 0C-.331 0-.632 .218-.723 .55L-3.73 11.47C-3.83 11.87-3.6 12.28-3.2 12.39-2.79 12.49-2.39 12.26-2.28 11.86L.723 .949C.832 .549 .597 .136 .2 .026 .132 .009 .065 0 0 0" fill="#dfbb7f"/><path transform="matrix(1,0,0,-1,79.51,68.06)" d="M0 0C-.328 0-.633 .218-.723 .549L-3.76 11.57C-3.87 11.97-3.63 12.38-3.24 12.5-2.82 12.6-2.42 12.37-2.31 11.97L.723 .947C.831 .548 .597 .137 .199 .026 .131 .008 .065 0 0 0" fill="#dfbb7f"/><path transform="matrix(1,0,0,-1,84.77,71.43)" d="M0 0C-8.55 0-15.51-6.96-15.51-15.51-15.51-24.06-8.55-31.01 0-31.01 8.55-31.01 15.5-24.06 15.5-15.51 15.5-6.96 8.55 0 0 0M0-33.26C-9.79-33.26-17.76-25.3-17.76-15.51-17.76-5.72-9.79 2.25 0 2.25 9.79 2.25 17.75-5.72 17.75-15.51 17.75-25.3 9.79-33.26 0-33.26" fill="#dfbb7f"/><path transform="matrix(1,0,0,-1,508.8,67.38)" d="M0 0C-.413 0-.751 .336-.751 .75V17.2C-.751 17.61-.413 17.95 0 17.95 .411 17.95 .749 17.61 .749 17.2V.75C.749 .336 .411 0 0 0" fill="#dfbb7f"/><path transform="matrix(1,0,0,-1,508.8,124.45)" d="M0 0C-.413 0-.751 .335-.751 .75V17.2C-.751 17.61-.413 17.95 0 17.95 .411 17.95 .749 17.61 .749 17.2V.75C.749 .335 .411 0 0 0" fill="#dfbb7f"/><path transform="matrix(1,0,0,-1,545.55,87.69)" d="M0 0H-16.44C-16.85 0-17.19 .335-17.19 .75-17.19 1.16-16.85 1.5-16.44 1.5H0C.412 1.5 .749 1.16 .749 .75 .749 .335 .412 0 0 0" fill="#dfbb7f"/><path transform="matrix(1,0,0,-1,488.49,87.69)" d="M0 0H-16.45C-16.86 0-17.2 .335-17.2 .75-17.2 1.16-16.86 1.5-16.45 1.5H0C.413 1.5 .75 1.16 .75 .75 .75 .335 .413 0 0 0" fill="#dfbb7f"/><path transform="matrix(1,0,0,-1,523.16,73.33)" d="M0 0C-.193 0-.384 .073-.53 .219-.822 .512-.822 .986-.53 1.28L11.09 12.91C11.39 13.2 11.86 13.2 12.15 12.91 12.45 12.62 12.45 12.14 12.15 11.85L.529 .219C.382 .073 .193 0 0 0" fill="#dfbb7f"/><path transform="matrix(1,0,0,-1,482.8,113.68)" d="M0 0C-.192 0-.383 .072-.529 .219-.822 .512-.822 .986-.529 1.28L11.1 12.91C11.39 13.2 11.87 13.2 12.16 12.91 12.45 12.62 12.45 12.14 12.16 11.85L.529 .219C.384 .072 .194 0 0 0" fill="#dfbb7f"/><path transform="matrix(1,0,0,-1,534.78,113.68)" d="M0 0C-.193 0-.382 .072-.529 .219L-12.15 11.85C-12.45 12.14-12.45 12.62-12.15 12.91-11.86 13.2-11.38 13.2-11.09 12.91L.53 1.28C.822 .986 .822 .512 .53 .219 .384 .072 .189 0 0 0" fill="#dfbb7f"/><path transform="matrix(1,0,0,-1,494.43,73.33)" d="M0 0C-.192 0-.384 .073-.529 .219L-12.16 11.85C-12.45 12.14-12.45 12.62-12.16 12.91-11.87 13.2-11.39 13.2-11.1 12.91L.53 1.28C.823 .986 .823 .512 .53 .219 .383 .073 .193 0 0 0" fill="#dfbb7f"/><path transform="matrix(1,0,0,-1,513.23,68.26)" d="M0 0C-.055 0-.109 .005-.166 .019-.57 .111-.821 .512-.731 .916L1.83 12.13C1.93 12.54 2.34 12.78 2.73 12.7 3.13 12.6 3.39 12.2 3.3 11.8L.732 .582C.65 .235 .344 0 0 0" fill="#dfbb7f"/><path transform="matrix(1,0,0,-1,501.8,118.34)" d="M0 0C-.056 0-.111 .005-.167 .019-.57 .111-.823 .512-.731 .916L1.91 12.52C2 12.92 2.42 13.17 2.81 13.08 3.22 12.99 3.47 12.59 3.38 12.19L.732 .583C.651 .235 .342 0 0 0" fill="#dfbb7f"/><path transform="matrix(1,0,0,-1,539.44,94.69)" d="M0 0C-.056 0-.112 .006-.168 .02L-10.73 2.42C-11.14 2.52-11.39 2.92-11.3 3.32-11.2 3.73-10.79 3.98-10.4 3.88L.167 1.48C.57 1.39 .821 .986 .73 .583 .651 .236 .342 0 0 0" fill="#dfbb7f"/><path transform="matrix(1,0,0,-1,488.62,83.14)" d="M0 0C-.054 0-.112 .006-.168 .019L-8.22 1.9C-8.62 2-8.87 2.4-8.78 2.8-8.68 3.21-8.27 3.45-7.88 3.36L.17 1.48C.573 1.39 .823 .982 .729 .578 .65 .232 .34 0 0 0" fill="#dfbb7f"/><path transform="matrix(1,0,0,-1,526.39,76.64)" d="M0 0C-.249 0-.491 .125-.636 .352-.854 .701-.749 1.16-.398 1.39L8.63 7.05C8.98 7.27 9.44 7.17 9.66 6.82 9.88 6.47 9.77 6 9.42 5.78L.398 .114C.275 .037 .137 0 0 0" fill="#dfbb7f"/><path transform="matrix(1,0,0,-1,482.18,104.41)" d="M0 0C-.249 0-.492 .124-.635 .351-.854 .701-.749 1.16-.397 1.38L8.27 6.82C8.61 7.04 9.07 6.94 9.3 6.59 9.52 6.24 9.41 5.78 9.06 5.55L.397 .114C.275 .037 .138 0 0 0" fill="#dfbb7f"/><path transform="matrix(1,0,0,-1,525.51,114.31)" d="M0 0C-.248 0-.491 .125-.636 .351L-6.85 10.25C-7.07 10.6-6.96 11.06-6.61 11.28-6.27 11.49-5.8 11.4-5.58 11.04L.635 1.15C.854 .798 .749 .334 .398 .114 .276 .037 .138 0 0 0" fill="#dfbb7f"/><path transform="matrix(1,0,0,-1,498.16,70.76)" d="M0 0C-.248 0-.491 .125-.636 .351L-6.72 10.04C-6.94 10.39-6.83 10.85-6.48 11.07-6.13 11.29-5.67 11.18-5.45 10.83L.635 1.15C.854 .797 .749 .335 .398 .114 .274 .036 .138 0 0 0" fill="#dfbb7f"/><path transform="matrix(1,0,0,-1,518.69,70.01)" d="M0 0C-.125 0-.256 .031-.37 .099-.729 .302-.854 .76-.652 1.12L5.03 11.12C5.24 11.49 5.7 11.62 6.05 11.41 6.41 11.2 6.54 10.74 6.33 10.38L.652 .379C.512 .136 .261 0 0 0" fill="#dfbb7f"/><path transform="matrix(1,0,0,-1,493.32,114.67)" d="M0 0C-.127 0-.256 .03-.37 .098-.729 .301-.855 .759-.653 1.12L4.77 10.67C4.98 11.03 5.44 11.16 5.79 10.95 6.15 10.75 6.28 10.29 6.08 9.93L.652 .378C.512 .136 .26 0 0 0" fill="#dfbb7f"/><path transform="matrix(1,0,0,-1,536.18,102.87)" d="M0 0C-.125 0-.251 .03-.368 .097L-10.16 5.66C-10.52 5.86-10.65 6.32-10.44 6.68-10.24 7.04-9.79 7.17-9.42 6.96L.369 1.4C.729 1.2 .855 .738 .652 .378 .514 .136 .262 0 0 0" fill="#dfbb7f"/><path transform="matrix(1,0,0,-1,490.84,77.17)" d="M0 0C-.128 0-.253 .033-.374 .1L-7.54 4.22C-7.89 4.42-8.02 4.88-7.81 5.24-7.61 5.6-7.15 5.72-6.79 5.52L.376 1.4C.732 1.19 .856 .735 .65 .376 .513 .135 .259 0 0 0" fill="#dfbb7f"/><path transform="matrix(1,0,0,-1,528.88,81.83)" d="M0 0C-.329 0-.632 .218-.724 .55-.832 .95-.599 1.36-.2 1.47L10.08 4.3C10.48 4.41 10.89 4.18 11 3.78 11.11 3.38 10.87 2.97 10.48 2.86L.197 .026C.131 .008 .063 0 0 0" fill="#dfbb7f"/><path transform="matrix(1,0,0,-1,478.54,95.69)" d="M0 0C-.327 0-.629 .218-.724 .55-.832 .949-.597 1.36-.199 1.47L9.74 4.21C10.15 4.33 10.55 4.09 10.67 3.69 10.78 3.29 10.54 2.88 10.14 2.77L.199 .026C.132 .009 .064 0 0 0" fill="#dfbb7f"/><path transform="matrix(1,0,0,-1,517.19,117.65)" d="M0 0C-.332 0-.633 .218-.723 .55L-3.73 11.47C-3.83 11.87-3.6 12.28-3.2 12.39-2.78 12.49-2.39 12.26-2.28 11.86L.722 .949C.83 .549 .597 .136 .197 .026 .131 .009 .063 0 0 0" fill="#dfbb7f"/><path transform="matrix(1,0,0,-1,503.54,68.06)" d="M0 0C-.329 0-.632 .218-.723 .549L-3.76 11.57C-3.87 11.97-3.63 12.38-3.24 12.5-2.83 12.6-2.42 12.37-2.31 11.97L.722 .947C.83 .548 .597 .137 .198 .026 .131 .008 .063 0 0 0" fill="#dfbb7f"/><path transform="matrix(1,0,0,-1,508.8,71.43)" d="M0 0C-8.55 0-15.51-6.96-15.51-15.51-15.51-24.06-8.55-31.01 0-31.01 8.55-31.01 15.5-24.06 15.5-15.51 15.5-6.96 8.55 0 0 0M0-33.26C-9.79-33.26-17.76-25.3-17.76-15.51-17.76-5.72-9.79 2.25 0 2.25 9.79 2.25 17.75-5.72 17.75-15.51 17.75-25.3 9.79-33.26 0-33.26" fill="#dfbb7f"/><path transform="matrix(1,0,0,-1,20.81,653.92)" d="M0 0 1.95 18.52 20.46 20.47 1.95 22.42 0 40.93-1.95 22.42-20.46 20.47-1.95 18.52Z" fill="#dfbb7f"/><path transform="matrix(1,0,0,-1,29.33,641.97)" d="M0 0-6.9 8.52 0 17.03-8.52 10.14-17.04 17.03-10.14 8.52-17.04 0-8.52 6.9Z" fill="#dfbb7f"/><path transform="matrix(1,0,0,-1,21.78,583.18)" d="M0 0C-5.18 0-9.39-4.21-9.39-9.4-9.39-14.57-5.18-18.79 0-18.79 5.18-18.79 9.39-14.57 9.39-9.4 9.39-4.21 5.18 0 0 0M0-20.29C-6-20.29-10.89-15.4-10.89-9.4-10.89-3.39-6 1.5 0 1.5 6 1.5 10.89-3.39 10.89-9.4 10.89-15.4 6-20.29 0-20.29" fill="#dfbb7f"/><path transform="matrix(1,0,0,-1,21.78,560.35)" d="M0 0C-1.12 0-2.03-.914-2.03-2.04-2.03-3.16-1.12-4.07 0-4.07 1.12-4.07 2.03-3.16 2.03-2.04 2.03-.914 1.12 0 0 0M0-5.56C-1.95-5.56-3.53-3.98-3.53-2.04-3.53-.085-1.95 1.5 0 1.5 1.95 1.5 3.53-.085 3.53-2.04 3.53-3.98 1.95-5.56 0-5.56" fill="#dfbb7f"/><path transform="matrix(1,0,0,-1,21.78,707.83)" d="M0 0C-1.12 0-2.03-.912-2.03-2.03-2.03-3.16-1.12-4.06 0-4.06 1.12-4.06 2.03-3.16 2.03-2.03 2.03-.912 1.12 0 0 0M0-5.56C-1.95-5.56-3.53-3.98-3.53-2.03-3.53-.085-1.95 1.5 0 1.5 1.95 1.5 3.53-.085 3.53-2.03 3.53-3.98 1.95-5.56 0-5.56" fill="#dfbb7f"/><path transform="matrix(1,0,0,-1,21.78,668.04)" d="M0 0C-5.18 0-9.39-4.21-9.39-9.4-9.39-14.57-5.18-18.79 0-18.79 5.18-18.79 9.39-14.57 9.39-9.4 9.39-4.21 5.18 0 0 0M0-20.29C-6-20.29-10.89-15.4-10.89-9.4-10.89-3.39-6 1.5 0 1.5 6 1.5 10.89-3.39 10.89-9.4 10.89-15.4 6-20.29 0-20.29" fill="#dfbb7f"/><path transform="matrix(1,0,0,-1,575.19,653.92)" d="M0 0 1.95 18.52 20.46 20.47 1.95 22.42 0 40.93-1.95 22.42-20.46 20.47-1.95 18.52Z" fill="#dfbb7f"/><path transform="matrix(1,0,0,-1,583.71,641.97)" d="M0 0-6.9 8.52 0 17.03-8.52 10.14-17.04 17.03-10.14 8.52-17.04 0-8.52 6.9Z" fill="#dfbb7f"/><path transform="matrix(1,0,0,-1,576.16,583.18)" d="M0 0C-5.18 0-9.39-4.21-9.39-9.4-9.39-14.57-5.18-18.79 0-18.79 5.18-18.79 9.4-14.57 9.4-9.4 9.4-4.21 5.18 0 0 0M0-20.29C-6-20.29-10.89-15.4-10.89-9.4-10.89-3.39-6 1.5 0 1.5 6.01 1.5 10.89-3.39 10.89-9.4 10.89-15.4 6.01-20.29 0-20.29" fill="#dfbb7f"/><path transform="matrix(1,0,0,-1,576.16,560.35)" d="M0 0C-1.12 0-2.03-.914-2.03-2.04-2.03-3.16-1.12-4.07 0-4.07 1.12-4.07 2.03-3.16 2.03-2.04 2.03-.914 1.12 0 0 0M0-5.56C-1.95-5.56-3.53-3.98-3.53-2.04-3.53-.085-1.95 1.5 0 1.5 1.95 1.5 3.53-.085 3.53-2.04 3.53-3.98 1.95-5.56 0-5.56" fill="#dfbb7f"/><path transform="matrix(1,0,0,-1,576.16,707.83)" d="M0 0C-1.12 0-2.03-.912-2.03-2.03-2.03-3.16-1.12-4.06 0-4.06 1.12-4.06 2.03-3.16 2.03-2.03 2.03-.912 1.12 0 0 0M0-5.56C-1.95-5.56-3.53-3.98-3.53-2.03-3.53-.085-1.95 1.5 0 1.5 1.95 1.5 3.53-.085 3.53-2.03 3.53-3.98 1.95-5.56 0-5.56" fill="#dfbb7f"/><path transform="matrix(1,0,0,-1,576.16,668.04)" d="M0 0C-5.18 0-9.39-4.21-9.39-9.4-9.39-14.57-5.18-18.79 0-18.79 5.18-18.79 9.4-14.57 9.4-9.4 9.4-4.21 5.18 0 0 0M0-20.29C-6-20.29-10.89-15.4-10.89-9.4-10.89-3.39-6 1.5 0 1.5 6.01 1.5 10.89-3.39 10.89-9.4 10.89-15.4 6.01-20.29 0-20.29" fill="#dfbb7f"/><path transform="matrix(1,0,0,-1,394.36,805.97)" d="M0 0C0 1.81-1.46 3.27-3.27 3.27-5.07 3.27-6.53 1.81-6.53 0-6.53-1.8-5.07-3.26-3.27-3.26-1.46-3.26 0-1.8 0 0" fill="#dfbb7f"/><path transform="matrix(1,0,0,-1,408.21,805.97)" d="M0 0C0 1.59-1.29 2.88-2.88 2.88-4.46 2.88-5.76 1.59-5.76 0-5.76-1.58-4.46-2.88-2.88-2.88-1.29-2.88 0-1.58 0 0" fill="#dfbb7f"/><path transform="matrix(1,0,0,-1,422.06,805.97)" d="M0 0C0 1.38-1.12 2.5-2.49 2.5-3.87 2.5-4.99 1.38-4.99 0-4.99-1.37-3.87-2.49-2.49-2.49-1.12-2.49 0-1.37 0 0" fill="#dfbb7f"/><path transform="matrix(1,0,0,-1,435.91,805.97)" d="M0 0C0 1.17-.942 2.11-2.11 2.11-3.27 2.11-4.22 1.17-4.22 0-4.22-1.16-3.27-2.11-2.11-2.11-.942-2.11 0-1.16 0 0" fill="#dfbb7f"/><path transform="matrix(1,0,0,-1,449.76,805.97)" d="M0 0C0 .957-.771 1.73-1.73 1.73-2.68 1.73-3.45 .957-3.45 0-3.45-.946-2.68-1.73-1.73-1.73-.771-1.73 0-.946 0 0" fill="#dfbb7f"/><path transform="matrix(1,0,0,-1,463.61,805.97)" d="M0 0C0 .746-.598 1.34-1.34 1.34-2.08 1.34-2.68 .746-2.68 0-2.68-.735-2.08-1.34-1.34-1.34-.598-1.34 0-.735 0 0" fill="#dfbb7f"/><path transform="matrix(1,0,0,-1,477.46,805.97)" d="M0 0C0 .532-.432 .959-.959 .959-1.49 .959-1.91 .532-1.91 0-1.91-.522-1.49-.956-.959-.956-.432-.956 0-.522 0 0" fill="#dfbb7f"/><path transform="matrix(1,0,0,-1,205.38,805.97)" d="M0 0C0 1.81 1.46 3.27 3.26 3.27 5.06 3.27 6.53 1.81 6.53 0 6.53-1.8 5.06-3.26 3.26-3.26 1.46-3.26 0-1.8 0 0" fill="#dfbb7f"/><path transform="matrix(1,0,0,-1,191.69,805.97)" d="M0 0C0 1.59 1.29 2.88 2.88 2.88 4.47 2.88 5.76 1.59 5.76 0 5.76-1.58 4.47-2.88 2.88-2.88 1.29-2.88 0-1.58 0 0" fill="#dfbb7f"/><path transform="matrix(1,0,0,-1,178,805.97)" d="M0 0C0 1.38 1.12 2.5 2.49 2.5 3.88 2.5 4.99 1.38 4.99 0 4.99-1.37 3.88-2.49 2.49-2.49 1.12-2.49 0-1.37 0 0" fill="#dfbb7f"/><path transform="matrix(1,0,0,-1,164.31,805.97)" d="M0 0C0 1.17 .949 2.11 2.11 2.11 3.28 2.11 4.22 1.17 4.22 0 4.22-1.16 3.28-2.11 2.11-2.11 .949-2.11 0-1.16 0 0" fill="#dfbb7f"/><path transform="matrix(1,0,0,-1,150.63,805.97)" d="M0 0C0 .957 .773 1.73 1.72 1.73 2.68 1.73 3.45 .957 3.45 0 3.45-.946 2.68-1.73 1.72-1.73 .773-1.73 0-.946 0 0" fill="#dfbb7f"/><path transform="matrix(1,0,0,-1,136.94,805.97)" d="M0 0C0 .746 .603 1.34 1.34 1.34 2.08 1.34 2.68 .746 2.68 0 2.68-.735 2.08-1.34 1.34-1.34 .603-1.34 0-.735 0 0" fill="#dfbb7f"/><path transform="matrix(1,0,0,-1,123.25,805.97)" d="M0 0C0 .532 .433 .959 .96 .959 1.49 .959 1.91 .532 1.91 0 1.91-.522 1.49-.956 .96-.956 .433-.956 0-.522 0 0" fill="#dfbb7f"/><path transform="matrix(1,0,0,-1,32.09,440.38)" d="M0 0C1.81 0 3.27-1.46 3.27-3.26 3.27-5.06 1.81-6.53 0-6.53-1.8-6.53-3.26-5.06-3.26-3.26-3.26-1.46-1.8 0 0 0" fill="#dfbb7f"/><path transform="matrix(1,0,0,-1,32.09,422.77)" d="M0 0C1.6 0 2.89-1.29 2.89-2.88 2.89-4.47 1.6-5.76 0-5.76-1.58-5.76-2.87-4.47-2.87-2.88-2.87-1.29-1.58 0 0 0" fill="#dfbb7f"/><path transform="matrix(1,0,0,-1,32.09,405.16)" d="M0 0C1.38 0 2.5-1.12 2.5-2.5 2.5-3.87 1.38-4.99 0-4.99-1.38-4.99-2.49-3.87-2.49-2.5-2.49-1.12-1.38 0 0 0" fill="#dfbb7f"/><path transform="matrix(1,0,0,-1,32.08,387.55)" d="M0 0C1.17 0 2.12-.948 2.12-2.11 2.12-3.28 1.17-4.22 0-4.22-1.16-4.22-2.11-3.28-2.11-2.11-2.11-.948-1.16 0 0 0" fill="#dfbb7f"/><path transform="matrix(1,0,0,-1,32.09,369.95)" d="M0 0C.955 0 1.73-.775 1.73-1.73 1.73-2.68 .955-3.45 0-3.45-.947-3.45-1.73-2.68-1.73-1.73-1.73-.775-.947 0 0 0" fill="#dfbb7f"/><path transform="matrix(1,0,0,-1,32.09,352.34)" d="M0 0C.745 0 1.34-.603 1.34-1.34 1.34-2.08 .745-2.68 0-2.68-.737-2.68-1.34-2.08-1.34-1.34-1.34-.603-.737 0 0 0" fill="#dfbb7f"/><path transform="matrix(1,0,0,-1,32.09,334.74)" d="M0 0C.534 0 .96-.43 .96-.957 .96-1.49 .534-1.91 0-1.91-.52-1.91-.953-1.49-.953-.957-.953-.43-.52 0 0 0" fill="#dfbb7f"/><path transform="matrix(1,0,0,-1,32.1,202.66)" d="M0 0C-1.81 0-3.27 1.46-3.27 3.26-3.27 5.07-1.81 6.53 0 6.53 1.8 6.53 3.26 5.07 3.26 3.26 3.26 1.46 1.8 0 0 0" fill="#dfbb7f"/><path transform="matrix(1,0,0,-1,32.1,220.27)" d="M0 0C-1.6 0-2.89 1.29-2.89 2.88-2.89 4.47-1.6 5.76 0 5.76 1.59 5.76 2.87 4.47 2.87 2.88 2.87 1.29 1.59 0 0 0" fill="#dfbb7f"/><path transform="matrix(1,0,0,-1,32.1,237.87)" d="M0 0C-1.39 0-2.5 1.12-2.5 2.49-2.5 3.87-1.39 4.99 0 4.99 1.37 4.99 2.49 3.87 2.49 2.49 2.49 1.12 1.37 0 0 0" fill="#dfbb7f"/><path transform="matrix(1,0,0,-1,32.1,255.48)" d="M0 0C-1.17 0-2.11 .945-2.11 2.11-2.11 3.27-1.17 4.22 0 4.22 1.16 4.22 2.11 3.27 2.11 2.11 2.11 .945 1.16 0 0 0" fill="#dfbb7f"/><path transform="matrix(1,0,0,-1,32.1,273.09)" d="M0 0C-.96 0-1.73 .776-1.73 1.73-1.73 2.68-.96 3.45 0 3.45 .942 3.45 1.72 2.68 1.72 1.73 1.72 .776 .942 0 0 0" fill="#dfbb7f"/><path transform="matrix(1,0,0,-1,32.1,290.69)" d="M0 0C-.75 0-1.35 .601-1.35 1.34-1.35 2.08-.75 2.68 0 2.68 .732 2.68 1.33 2.08 1.33 1.34 1.33 .601 .732 0 0 0" fill="#dfbb7f"/><path transform="matrix(1,0,0,-1,32.1,308.3)" d="M0 0C-.533 0-.96 .43-.96 .957-.96 1.49-.533 1.91 0 1.91 .521 1.91 .954 1.49 .954 .957 .954 .43 .521 0 0 0" fill="#dfbb7f"/><path transform="matrix(1,0,0,-1,226.09,820.17)" d="M0 0C0-2.04-1.66-3.7-3.7-3.7-5.74-3.7-7.4-2.04-7.4 0-7.4 2.04-5.74 3.7-3.7 3.7-1.66 3.7 0 2.04 0 0" fill="#dfbb7f"/><path transform="matrix(1,0,0,-1,379.27,820.17)" d="M0 0C0-2.04-1.66-3.7-3.7-3.7-5.74-3.7-7.4-2.04-7.4 0-7.4 2.04-5.74 3.7-3.7 3.7-1.66 3.7 0 2.04 0 0" fill="#dfbb7f"/><path transform="matrix(1,0,0,-1,46.44,469.72)" d="M0 0C-.158 .104-.357 .11-.516 .006L-4-2.32-7.47 .006C-7.63 .11-7.84 .11-8 0-8.15-.111-8.22-.305-8.18-.486L-4.44-15.26C-4.38-15.46-4.21-15.61-4-15.61-3.79-15.61-3.6-15.46-3.55-15.26L.187-.486C.229-.305 .158-.111 0 0" fill="#dfbb7f"/><path transform="matrix(1,0,0,-1,563.53,440.38)" d="M0 0C-1.81 0-3.27-1.46-3.27-3.26-3.27-5.06-1.81-6.53 0-6.53 1.8-6.53 3.26-5.06 3.26-3.26 3.26-1.46 1.8 0 0 0" fill="#dfbb7f"/><path transform="matrix(1,0,0,-1,563.53,422.77)" d="M0 0C-1.6 0-2.89-1.29-2.89-2.88-2.89-4.47-1.6-5.76 0-5.76 1.58-5.76 2.87-4.47 2.87-2.88 2.87-1.29 1.58 0 0 0" fill="#dfbb7f"/><path transform="matrix(1,0,0,-1,563.53,405.16)" d="M0 0C-1.39 0-2.5-1.12-2.5-2.5-2.5-3.87-1.39-4.99 0-4.99 1.37-4.99 2.49-3.87 2.49-2.5 2.49-1.12 1.37 0 0 0" fill="#dfbb7f"/><path transform="matrix(1,0,0,-1,563.52,387.55)" d="M0 0C-1.17 0-2.11-.948-2.11-2.11-2.11-3.28-1.17-4.22 0-4.22 1.16-4.22 2.11-3.28 2.11-2.11 2.11-.948 1.16 0 0 0" fill="#dfbb7f"/><path transform="matrix(1,0,0,-1,563.53,369.95)" d="M0 0C-.961 0-1.73-.775-1.73-1.73-1.73-2.68-.961-3.45 0-3.45 .942-3.45 1.72-2.68 1.72-1.73 1.72-.775 .942 0 0 0" fill="#dfbb7f"/><path transform="matrix(1,0,0,-1,563.53,352.34)" d="M0 0C-.749 0-1.35-.603-1.35-1.34-1.35-2.08-.749-2.68 0-2.68 .731-2.68 1.33-2.08 1.33-1.34 1.33-.603 .731 0 0 0" fill="#dfbb7f"/><path transform="matrix(1,0,0,-1,563.53,334.74)" d="M0 0C-.532 0-.961-.43-.961-.957-.961-1.49-.532-1.91 0-1.91 .521-1.91 .954-1.49 .954-.957 .954-.43 .521 0 0 0" fill="#dfbb7f"/><path transform="matrix(1,0,0,-1,563.52,202.66)" d="M0 0C1.81 0 3.27 1.46 3.27 3.26 3.27 5.07 1.81 6.53 0 6.53-1.8 6.53-3.26 5.07-3.26 3.26-3.26 1.46-1.8 0 0 0" fill="#dfbb7f"/><path transform="matrix(1,0,0,-1,563.52,220.27)" d="M0 0C1.59 0 2.89 1.29 2.89 2.88 2.89 4.47 1.59 5.76 0 5.76-1.59 5.76-2.88 4.47-2.88 2.88-2.88 1.29-1.59 0 0 0" fill="#dfbb7f"/><path transform="matrix(1,0,0,-1,563.52,237.87)" d="M0 0C1.38 0 2.5 1.12 2.5 2.49 2.5 3.87 1.38 4.99 0 4.99-1.38 4.99-2.49 3.87-2.49 2.49-2.49 1.12-1.38 0 0 0" fill="#dfbb7f"/><path transform="matrix(1,0,0,-1,563.51,255.48)" d="M0 0C1.17 0 2.12 .945 2.12 2.11 2.12 3.27 1.17 4.22 0 4.22-1.16 4.22-2.11 3.27-2.11 2.11-2.11 .945-1.16 0 0 0" fill="#dfbb7f"/><path transform="matrix(1,0,0,-1,563.52,273.09)" d="M0 0C.954 0 1.73 .776 1.73 1.73 1.73 2.68 .954 3.45 0 3.45-.949 3.45-1.73 2.68-1.73 1.73-1.73 .776-.949 0 0 0" fill="#dfbb7f"/><path transform="matrix(1,0,0,-1,563.52,290.69)" d="M0 0C.743 0 1.35 .601 1.35 1.34 1.35 2.08 .743 2.68 0 2.68-.737 2.68-1.34 2.08-1.34 1.34-1.34 .601-.737 0 0 0" fill="#dfbb7f"/><path transform="matrix(1,0,0,-1,563.52,308.3)" d="M0 0C.533 0 .96 .43 .96 .957 .96 1.49 .533 1.91 0 1.91-.521 1.91-.954 1.49-.954 .957-.954 .43-.521 0 0 0" fill="#dfbb7f"/><path transform="matrix(1,0,0,-1,549.64,469.72)" d="M0 0C.158 .104 .356 .11 .52 .006L4-2.32 7.48 .006C7.63 .11 7.84 .11 8 0 8.15-.111 8.22-.305 8.18-.486L4.45-15.26C4.39-15.46 4.21-15.61 4-15.61 3.79-15.61 3.61-15.46 3.55-15.26L-.182-.486C-.229-.305-.158-.111 0 0" fill="#dfbb7f"/><path transform="matrix(1,0,0,-1,28.92,34.16)" d="M0 0 1.77 6.1 7.87 7.86 1.77 9.64 0 15.74-1.77 9.64-7.88 7.86-1.77 6.1Z" fill="#dfbb7f"/><path transform="matrix(1,0,0,-1,24.06,41.38)" d="M0 0C.249-.256 .503-.504 .77-.742 3.46-3.17 6.93-4.5 10.55-4.5 14.7-4.5 18.67-2.73 21.43 .343 24.05 3.25 25.38 7 25.18 10.9 24.97 14.81 23.26 18.4 20.35 21.02 20.09 21.25 19.82 21.48 19.54 21.7 21.36 16.06 20.1 9.79 16 5.23 12.03 .809 5.74-1.2 0 0M10.55-6.75C6.38-6.75 2.37-5.21-.735-2.41-2.03-1.25-3.13 .102-4.01 1.6-4.26 2.02-4.21 2.56-3.88 2.92-3.55 3.29-3.02 3.4-2.58 3.19 3.08 .63 10.16 2.1 14.33 6.73 18.62 11.5 19.32 18.41 16.09 23.93 15.84 24.35 15.89 24.89 16.22 25.25 16.55 25.61 17.07 25.73 17.52 25.52 19.1 24.8 20.56 23.85 21.85 22.69 25.21 19.67 27.18 15.53 27.42 11.02 27.66 6.52 26.12 2.19 23.1-1.16 19.91-4.71 15.34-6.75 10.55-6.75" fill="#dfbb7f"/><path transform="matrix(1,0,0,-1,568.91,34.16)" d="M0 0-1.77 6.1-7.87 7.86-1.77 9.64 0 15.74 1.77 9.64 7.88 7.86 1.77 6.1Z" fill="#dfbb7f"/><path transform="matrix(1,0,0,-1,554.23,19.69)" d="M0 0C-.281-.216-.556-.444-.821-.68-3.72-3.29-5.43-6.88-5.64-10.79-5.84-14.7-4.52-18.45-1.9-21.35 .869-24.43 4.84-26.2 8.98-26.2 12.6-26.2 16.08-24.86 18.77-22.44 19.03-22.2 19.29-21.95 19.54-21.7 18.41-21.93 17.25-22.05 16.08-22.05 11.3-22.05 6.73-20.01 3.54-16.47-.568-11.91-1.82-5.64 0 0M8.98-28.44C4.2-28.44-.374-26.41-3.57-22.85-6.58-19.5-8.12-15.18-7.88-10.67-7.65-6.17-5.67-2.02-2.32 .995-1.02 2.15 .437 3.1 2.01 3.82 2.46 4.03 2.98 3.92 3.32 3.56 3.64 3.19 3.7 2.66 3.45 2.23 .215-3.29 .919-10.2 5.21-14.96 7.97-18.04 11.94-19.8 16.08-19.8 18.18-19.8 20.21-19.36 22.12-18.5 22.55-18.29 23.09-18.41 23.41-18.77 23.74-19.14 23.8-19.67 23.55-20.09 22.67-21.59 21.57-22.95 20.27-24.11 17.17-26.9 13.16-28.44 8.98-28.44" fill="#dfbb7f"/><path transform="matrix(1,0,0,-1,28.92,801.81)" d="M0 0 1.77-6.1 7.87-7.86 1.77-9.64 0-15.74-1.77-9.64-7.88-7.86-1.77-6.1Z" fill="#dfbb7f"/><path transform="matrix(1,0,0,-1,27.52,794.23)" d="M0 0C4.78 0 9.36-2.03 12.55-5.58 16.65-10.14 17.91-16.41 16.08-22.05 16.36-21.83 16.64-21.6 16.9-21.37 19.8-18.75 21.52-15.16 21.72-11.26 21.92-7.35 20.6-3.6 17.98-.7 15.21 2.38 11.25 4.15 7.1 4.15 3.48 4.15 .003 2.81-2.69 .388-2.95 .151-3.21-.098-3.45-.351-2.33-.117-1.17 0 0 0M13.6-25.98C13.29-25.98 12.98-25.85 12.77-25.6 12.44-25.24 12.38-24.71 12.63-24.28 15.87-18.76 15.16-11.85 10.88-7.08 6.71-2.45-.371-.98-6.04-3.55-6.47-3.74-7.01-3.64-7.34-3.27-7.66-2.91-7.72-2.38-7.47-1.95-6.58-.448-5.48 .904-4.19 2.06-1.09 4.86 2.92 6.39 7.1 6.39 11.88 6.39 16.46 4.36 19.65 .806 22.67-2.54 24.2-6.87 23.96-11.38 23.73-15.88 21.75-20.02 18.4-23.04 17.1-24.2 15.65-25.15 14.07-25.87 13.92-25.94 13.76-25.98 13.6-25.98" fill="#dfbb7f"/><path transform="matrix(1,0,0,-1,568.91,801.81)" d="M0 0-1.77-6.1-7.87-7.86-1.77-9.64 0-15.74 1.77-9.64 7.88-7.86 1.77-6.1Z" fill="#dfbb7f"/><path transform="matrix(1,0,0,-1,563.21,790.08)" d="M0 0C-4.15 0-8.11-1.77-10.88-4.85-13.5-7.75-14.82-11.5-14.62-15.4-14.41-19.31-12.7-22.9-9.8-25.52-9.53-25.75-9.26-25.98-8.98-26.2-10.8-20.56-9.54-14.29-5.44-9.73-1.48-5.31 4.83-3.31 10.55-4.5 10.31-4.25 10.05-4 9.79-3.76 7.1-1.33 3.62 0 0 0M-6.5-30.12C-6.66-30.12-6.81-30.09-6.97-30.02-8.55-29.3-10-28.35-11.3-27.19-14.65-24.17-16.63-20.03-16.86-15.52-17.1-11.02-15.56-6.69-12.55-3.34-9.35 .21-4.78 2.25 0 2.25 4.18 2.25 8.19 .708 11.29-2.09 12.51-3.18 13.55-4.44 14.41-5.84 14.64-6.04 14.78-6.34 14.78-6.67 14.78-7.3 14.35-7.72 13.63-7.79 13.45-7.78 13.29-7.76 13.14-7.69 7.48-5.13 .394-6.6-3.77-11.23-8.06-16-8.77-22.91-5.53-28.43-5.28-28.85-5.34-29.39-5.66-29.75-5.88-29.99-6.19-30.12-6.5-30.12" fill="#dfbb7f"/><path transform="matrix(1,0,0,-1,61.35,515.87)" d="M0 0C0-3.62-2.94-6.56-6.56-6.56-10.18-6.56-13.11-3.62-13.11 0-13.11 3.62-10.18 6.55-6.56 6.55-2.94 6.55 0 3.62 0 0" fill="#dfbb7f"/><path transform="matrix(1,0,0,-1,40.56,515.87)" d="M0 0C0-3.62-2.94-6.56-6.56-6.56-10.18-6.56-13.11-3.62-13.11 0-13.11 3.62-10.18 6.55-6.56 6.55-2.94 6.55 0 3.62 0 0" fill="#dfbb7f"/><path transform="matrix(1,0,0,-1,542.36,533.33)" d="M0 0C-.83 0-1.5 .673-1.5 1.5V4.5C-1.5 5.32-.83 5.99 0 5.99 .827 5.99 1.5 5.32 1.5 4.5V1.5C1.5 .673 .827 0 0 0M0-14.98C-.83-14.98-1.5-14.31-1.5-13.48V-10.49C-1.5-9.66-.83-8.99 0-8.99 .827-8.99 1.5-9.66 1.5-10.49V-13.48C1.5-14.31 .827-14.98 0-14.98M0-29.97C-.83-29.97-1.5-29.3-1.5-28.47V-25.47C-1.5-24.64-.83-23.97 0-23.97 .827-23.97 1.5-24.64 1.5-25.47V-28.47C1.5-29.3 .827-29.97 0-29.97M0-44.95C-.83-44.95-1.5-44.28-1.5-43.45V-40.45C-1.5-39.62-.83-38.95 0-38.95 .827-38.95 1.5-39.62 1.5-40.45V-43.45C1.5-44.28 .827-44.95 0-44.95M0-59.93C-.83-59.93-1.5-59.26-1.5-58.44V-55.44C-1.5-54.61-.83-53.94 0-53.94 .827-53.94 1.5-54.61 1.5-55.44V-58.44C1.5-59.26 .827-59.93 0-59.93M0-74.92C-.83-74.92-1.5-74.25-1.5-73.42V-70.42C-1.5-69.59-.83-68.92 0-68.92 .827-68.92 1.5-69.59 1.5-70.42V-73.42C1.5-74.25 .827-74.92 0-74.92M0-89.9C-.83-89.9-1.5-89.23-1.5-88.4V-85.4C-1.5-84.58-.83-83.91 0-83.91 .827-83.91 1.5-84.58 1.5-85.4V-88.4C1.5-89.23 .827-89.9 0-89.9M-.435-104.87C-.476-104.87-.516-104.87-.558-104.86-1.38-104.8-2-104.08-1.93-103.25-1.85-102.27-1.79-101.29-1.73-100.3-1.68-99.47-.958-98.82-.153-98.89 .675-98.93 1.31-99.64 1.26-100.46 1.2-101.48 1.14-102.48 1.06-103.49 .994-104.28 .338-104.87-.435-104.87M-2.4-119.71C-2.49-119.71-2.58-119.7-2.68-119.69-3.49-119.53-4.02-118.75-3.87-117.93-3.69-116.97-3.52-116-3.36-115.01-3.22-114.2-2.46-113.64-1.63-113.78-.817-113.92-.267-114.69-.401-115.5-.565-116.5-.741-117.5-.929-118.49-1.06-119.21-1.69-119.71-2.4-119.71M-5.94-134.26C-6.08-134.26-6.23-134.24-6.37-134.19-7.16-133.96-7.61-133.12-7.37-132.33-7.09-131.38-6.81-130.44-6.55-129.49-6.33-128.69-5.5-128.22-4.71-128.44-3.91-128.66-3.44-129.49-3.67-130.28-3.94-131.26-4.21-132.23-4.5-133.19-4.7-133.84-5.29-134.26-5.94-134.26M-11.01-148.33C-11.21-148.33-11.4-148.29-11.59-148.21-12.36-147.89-12.71-147.01-12.39-146.25-12.01-145.35-11.64-144.43-11.27-143.52-10.97-142.75-10.09-142.36-9.33-142.68-8.56-142.98-8.18-143.85-8.49-144.62-8.86-145.56-9.24-146.49-9.63-147.41-9.87-147.99-10.43-148.33-11.01-148.33M-17.55-161.78C-17.8-161.78-18.05-161.72-18.28-161.6-19-161.2-19.27-160.28-18.86-159.56-18.39-158.7-17.92-157.83-17.46-156.96-17.07-156.22-16.17-155.95-15.43-156.33-14.7-156.72-14.42-157.62-14.81-158.35-15.28-159.25-15.75-160.13-16.24-161.01-16.52-161.51-17.03-161.78-17.55-161.78M-25.5-174.47C-25.8-174.47-26.1-174.38-26.36-174.2-27.04-173.72-27.2-172.79-26.73-172.11-26.16-171.31-25.6-170.49-25.05-169.67-24.58-168.98-23.64-168.8-22.97-169.26-22.28-169.72-22.1-170.66-22.56-171.34-23.12-172.18-23.69-173.01-24.27-173.83-24.57-174.25-25.03-174.47-25.5-174.47M-34.74-186.24C-35.09-186.24-35.45-186.12-35.73-185.87-36.35-185.33-36.41-184.38-35.87-183.76-35.22-183.01-34.58-182.26-33.94-181.51-33.41-180.88-32.46-180.79-31.83-181.32-31.2-181.86-31.11-182.8-31.65-183.44-32.29-184.21-32.95-184.97-33.62-185.73-33.91-186.07-34.33-186.24-34.74-186.24M-45.19-196.97C-45.59-196.97-45.99-196.81-46.28-196.49-46.85-195.89-46.81-194.94-46.2-194.38-45.48-193.7-44.76-193.03-44.05-192.34-43.45-191.77-42.5-191.78-41.93-192.38-41.35-192.97-41.37-193.93-41.97-194.5-42.69-195.2-43.43-195.89-44.17-196.58-44.46-196.84-44.82-196.97-45.19-196.97M-56.7-206.54C-57.16-206.54-57.61-206.34-57.91-205.94-58.4-205.28-58.26-204.34-57.6-203.84-56.81-203.25-56.02-202.66-55.24-202.05-54.6-201.54-53.65-201.65-53.14-202.31-52.63-202.96-52.74-203.9-53.4-204.41-54.19-205.03-55-205.64-55.81-206.25-56.08-206.45-56.39-206.54-56.7-206.54M-69.18-214.84C-69.69-214.84-70.19-214.58-70.47-214.11-70.89-213.4-70.65-212.48-69.94-212.06-69.09-211.55-68.24-211.04-67.4-210.52-66.69-210.08-65.77-210.3-65.34-211.01-64.9-211.71-65.12-212.63-65.82-213.06-66.68-213.6-67.54-214.12-68.41-214.64-68.65-214.78-68.92-214.84-69.18-214.84M-82.47-221.76C-83.04-221.76-83.58-221.44-83.83-220.89-84.17-220.14-83.84-219.25-83.09-218.9-82.19-218.49-81.29-218.07-80.4-217.65-79.65-217.29-78.76-217.6-78.4-218.34-78.04-219.09-78.35-219.99-79.1-220.34-80.01-220.78-80.93-221.21-81.85-221.63-82.05-221.72-82.26-221.76-82.47-221.76M-96.43-227.23C-97.06-227.23-97.64-226.83-97.85-226.2-98.11-225.42-97.68-224.57-96.9-224.31-95.95-224-95.02-223.67-94.08-223.34-93.31-223.06-92.45-223.47-92.17-224.26-91.9-225.04-92.31-225.89-93.08-226.17-94.03-226.5-94.99-226.83-95.96-227.15-96.11-227.21-96.27-227.23-96.43-227.23M-110.87-231.16C-111.56-231.16-112.19-230.68-112.33-229.98-112.51-229.17-111.99-228.37-111.19-228.2-110.22-227.99-109.25-227.77-108.3-227.54-107.49-227.33-106.69-227.85-106.49-228.65-106.3-229.46-106.8-230.26-107.6-230.46-108.58-230.69-109.56-230.91-110.55-231.13-110.66-231.15-110.77-231.16-110.87-231.16M-125.66-233.53C-126.42-233.53-127.06-232.96-127.15-232.19-127.23-231.36-126.64-230.63-125.81-230.54-124.83-230.43-123.85-230.32-122.87-230.19-122.08-230.07-121.3-230.67-121.19-231.49-121.09-232.31-121.67-233.06-122.49-233.17-123.49-233.3-124.49-233.41-125.5-233.52-125.55-233.52-125.61-233.53-125.66-233.53M-140.6-234.31C-141.43-234.31-142.1-233.64-142.1-232.81-142.1-231.99-141.43-231.31-140.6-231.31-139.62-231.31-138.63-231.3-137.64-231.28H-137.61C-136.8-231.28-136.13-231.93-136.11-232.75-136.1-233.58-136.75-234.26-137.58-234.28-138.59-234.3-139.59-234.31-140.6-234.31" fill="#dfbb7f"/><path transform="matrix(1,0,0,-1,535.89,515.87)" d="M0 0C0-3.62 2.94-6.56 6.56-6.56 10.18-6.56 13.11-3.62 13.11 0 13.11 3.62 10.18 6.55 6.56 6.55 2.94 6.55 0 3.62 0 0" fill="#dfbb7f"/><path transform="matrix(1,0,0,-1,556.68,515.87)" d="M0 0C0-3.62 2.94-6.56 6.56-6.56 10.18-6.56 13.11-3.62 13.11 0 13.11 3.62 10.18 6.55 6.56 6.55 2.94 6.55 0 3.62 0 0" fill="#dfbb7f"/></g></g></svg> 